<?xml version="1.0" standalone="no"?>
<!DOCTYPE svg PUBLIC "-//W3C//DTD SVG 20010904//EN"
 "http://www.w3.org/TR/2001/REC-SVG-20010904/DTD/svg10.dtd">
<svg version="1.0" xmlns="http://www.w3.org/2000/svg"
 width="327.000000pt" height="327.000000pt" viewBox="0 0 327.000000 327.000000"
 preserveAspectRatio="xMidYMid meet">
<metadata>
Created by potrace 1.11, written by Peter Selinger 2001-2013
</metadata>
<g transform="translate(0.000000,327.000000) scale(0.100000,-0.100000)"
fill="#000000" stroke="none">
<path d="M2060 2781 c-51 -50 -44 -71 91 -306 66 -115 134 -232 151 -260 40
-65 41 -116 4 -153 l-26 -27 -363 -1 c-228 -1 -369 3 -382 9 -28 14 -33 23
-127 185 -56 97 -92 148 -110 158 -22 11 -104 14 -439 14 l-412 0 -39 -42
c-21 -23 -38 -45 -38 -49 0 -4 -82 -149 -182 -321 -156 -267 -182 -319 -182
-353 1 -38 19 -75 123 -250 10 -16 28 -48 41 -70 151 -268 227 -395 251 -418
l29 -27 411 0 c329 1 416 3 438 14 24 13 56 62 147 228 42 76 69 108 99 117
17 5 189 9 382 8 l353 -2 27 -28 c51 -51 43 -73 -125 -362 -168 -289 -174
-305 -122 -356 l29 -30 256 3 256 3 19 25 c18 23 252 422 294 500 10 19 49 87
86 150 233 398 272 472 267 504 -3 17 -44 98 -91 179 -47 82 -97 167 -110 190
-13 23 -106 186 -208 362 -102 176 -192 334 -201 350 -8 17 -27 42 -42 57
l-26 27 -250 1 -250 1 -29 -30z"/>
</g>
</svg>
